<?xml version="1.0" encoding="utf-8"?>
<!-- Generator: Adobe Illustrator 21.1.0, SVG Export Plug-In . SVG Version: 6.00 Build 0)  -->
<svg version="1.1" id="Capa_1" xmlns="http://www.w3.org/2000/svg" xmlns:xlink="http://www.w3.org/1999/xlink" x="0px" y="0px"
	 viewBox="0 0 512 512" style="enable-background:new 0 0 512 512;" xml:space="preserve">
<style type="text/css">
	.st0{fill:#585658;}
</style>
<g>
	<path class="st0" d="M506.8,137.4l-25.6-25.6c-3.4-3.4-7.4-5.1-11.8-5.1s-8.4,1.7-11.8,5.1L255.9,313.4L54.3,111.8
		c-3.4-3.4-7.4-5.1-11.8-5.1s-8.4,1.7-11.8,5.1L5.1,137.4c-3.4,3.4-5.1,7.4-5.1,11.8s1.7,8.4,5.1,11.8l239,239.1
		c3.4,3.4,7.4,5.1,11.8,5.1s8.4-1.7,11.8-5.1L506.8,161c3.4-3.4,5.1-7.4,5.1-11.8C511.9,144.7,510.2,140.8,506.8,137.4z"/>
</g>
</svg>
