<?xml version="1.0" encoding="iso-8859-1"?>
<!-- Generator: Adobe Illustrator 19.0.0, SVG Export Plug-In . SVG Version: 6.00 Build 0)  -->
<svg xmlns="http://www.w3.org/2000/svg" xmlns:xlink="http://www.w3.org/1999/xlink" version="1.1" id="Layer_1" x="0px" y="0px" viewBox="0 0 512 512" style="enable-background:new 0 0 512 512;" xml:space="preserve" width="512px" height="512px">
<g>
	<g>
		<path d="M455.806,343.951l-15.93-15.93v-80.764c0-4.151-3.365-7.515-7.515-7.515c-4.15,0-7.515,3.364-7.515,7.515v65.734    l-38.848-38.848c-2.935-2.934-7.694-2.934-10.627,0l-1.352,1.352L357.6,259.077c17.049-24.441,26.236-53.452,26.236-83.877    c0-39.27-15.293-76.191-43.061-103.959c-57.323-57.323-150.594-57.322-207.916,0c-27.768,27.768-43.061,64.688-43.061,103.959    c0,39.269,15.293,76.19,43.061,103.959c28.662,28.662,66.31,42.992,103.959,42.992c29.362,0,58.723-8.719,83.822-26.152    l16.437,16.437l-1.352,1.352c-2.935,2.936-2.935,7.694,0,10.628l69.809,69.809c5.447,5.447,12.237,8.743,19.313,9.909v17.83    h-67.429c-4.15,0-7.515,3.364-7.515,7.515v67.49H60.83V319.486c0-4.151-3.365-7.515-7.515-7.515s-7.515,3.364-7.515,7.515v184.999    c0,4.151,3.365,7.515,7.515,7.515h304.199c1.993,0,3.905-0.792,5.314-2.2l74.847-74.847c1.41-1.41,2.201-3.321,2.201-5.315    v-26.231c5.839-1.556,11.359-4.609,15.93-9.182C469.666,380.364,469.666,357.812,455.806,343.951z M364.931,486.183v-49.189    h49.189L364.931,486.183z M316.828,280.154c-0.073,0.056-0.138,0.12-0.209,0.178c-23.493,17.859-51.642,26.796-79.803,26.794    c-33.795-0.003-67.602-12.869-93.33-38.598c-24.929-24.929-38.659-58.074-38.659-93.33c0-35.256,13.73-68.402,38.659-93.33    c25.732-25.732,59.531-38.598,93.33-38.598s67.599,12.866,93.331,38.598c24.929,24.928,38.659,58.074,38.659,93.33    c0,29.116-9.372,56.787-26.674,79.584c-0.135,0.15-0.271,0.301-0.395,0.463c-3.581,4.681-7.492,9.151-11.626,13.284    C325.97,272.67,321.501,276.581,316.828,280.154z M332.618,286.722c2.791-2.4,5.512-4.921,8.156-7.565    c2.624-2.624,5.136-5.332,7.536-8.114l15.077,15.078l-15.686,15.686L332.618,286.722z M445.177,383.596c-8,8-21.017,8-29.018,0    l-64.495-64.494l29.018-29.018l45.845,45.846c0.327,0.402,0.693,0.769,1.095,1.095l17.554,17.554    C453.177,362.58,453.177,375.597,445.177,383.596z" fill="#c5a31a"/>
	</g>
</g>
<g>
	<g>
		<path d="M330.57,384.047H143.062c-4.15,0-7.515,3.364-7.515,7.515c0,4.151,3.365,7.515,7.515,7.515H330.57    c4.15,0,7.515-3.364,7.515-7.515S334.72,384.047,330.57,384.047z" fill="#c5a31a"/>
	</g>
</g>
<g>
	<g>
		<path d="M330.57,348.675H143.062c-4.15,0-7.515,3.364-7.515,7.515c0,4.15,3.365,7.515,7.515,7.515H330.57    c4.15,0,7.515-3.364,7.515-7.515C338.085,352.039,334.72,348.675,330.57,348.675z" fill="#c5a31a"/>
	</g>
</g>
<g>
	<g>
		<path d="M272.344,419.42H143.062c-4.15,0-7.515,3.364-7.515,7.515c0,4.151,3.365,7.515,7.515,7.515h129.282    c4.15,0,7.515-3.364,7.515-7.515C279.859,422.784,276.494,419.42,272.344,419.42z" fill="#c5a31a"/>
	</g>
</g>
<g>
	<g>
		<path d="M314.428,254.558c-4.935-15.837-15.392-30.254-29.446-40.598c-6.466-4.759-13.577-8.55-21.023-11.297    c9.371-7.839,15.345-19.611,15.345-32.754v-30.274c0-23.544-19.154-42.697-42.696-42.697c-0.005,0-0.009,0-0.014,0    c-0.005,0-0.009,0-0.014,0c-23.527,0-42.669,19.143-42.669,42.67v15.126c0,0.01,0.001,0.019,0.001,0.029v15.148    c0,13.143,5.974,24.915,15.345,32.754c-7.445,2.747-14.557,6.538-21.023,11.297c-10.97,8.074-19.735,18.637-25.406,30.412    c-17.288-18.134-27.915-42.671-27.915-69.644c0-26.786,10.378-52.021,29.222-71.055c2.92-2.949,2.896-7.708-0.054-10.627    c-2.949-2.92-7.708-2.896-10.627,0.054c-21.648,21.867-33.571,50.858-33.571,81.63c0,63.98,52.051,116.032,116.031,116.032    c16.79,0,33.101-3.567,48.09-10.409c10.125-4.532,19.62-10.526,28.152-17.858C314.426,260.54,315.321,257.419,314.428,254.558z     M208.941,139.634c0-15.251,12.403-27.658,27.652-27.666c15.234,0.007,27.625,12.403,27.625,27.64v6.157    c-9.565-3.828-13.652-13.949-13.846-14.443c-1.042-2.751-3.594-4.64-6.53-4.835c-2.934-0.188-5.714,1.341-7.111,3.93    c-0.081,0.15-7.546,13.539-27.789,16.305V139.634z M208.941,169.91v-8.05c16.273-1.706,26.99-8.764,33.377-14.844    c4.425,5.79,11.514,12.256,21.955,14.448v8.446c0,14.876-11.804,27.043-26.537,27.638c-0.342-0.009-0.683-0.025-1.024-0.03    c-0.001,0-0.002,0-0.003,0h-0.001c-0.068-0.002-0.136-0.002-0.204,0c-0.001,0-0.002,0-0.003,0    c-0.341,0.005-0.682,0.021-1.024,0.03C220.744,196.952,208.941,184.787,208.941,169.91z M243.227,213.002l-2.755,5.352h-7.733    l-2.754-5.352c0.233-0.028,0.466-0.054,0.699-0.079c0.654-0.07,1.309-0.13,1.963-0.18c0.333-0.026,0.665-0.053,0.999-0.074    c0.691-0.042,1.383-0.064,2.073-0.085c0.296,0.006,0.589,0.023,0.887,0.023s0.59-0.016,0.887-0.023    c0.69,0.02,1.382,0.042,2.073,0.085c0.334,0.02,0.667,0.048,1,0.074c0.653,0.05,1.307,0.111,1.959,0.18    C242.76,212.948,242.994,212.974,243.227,213.002z M211.995,272.397c-13.443-3.38-26.119-9.507-37.174-18.069    c7.068-17.395,22.166-31.236,40.106-37.742l5.289,10.276l-9.18,39.853C210.58,268.687,210.947,270.727,211.995,272.397z     M236.606,274.917l-9.941-9.099l7.472-32.434h4.939l7.472,32.434L236.606,274.917z M295.205,256.693    c-0.438,0.195-0.864,0.432-1.271,0.719c-4.691,3.299-9.619,6.153-14.724,8.581c-5.781,2.691-11.801,4.847-17.99,6.403    c1.047-1.669,1.414-3.709,0.96-5.681l-9.182-39.853l5.289-10.276c17.94,6.506,33.038,20.347,40.106,37.742    C297.345,255.139,296.281,255.925,295.205,256.693z" fill="#c5a31a"/>
	</g>
</g>
<g>
	<g>
		<path d="M235.91,58.696c-21.558,0-42.605,5.957-60.864,17.227c-3.532,2.179-4.628,6.81-2.448,10.342    c2.18,3.532,6.811,4.629,10.343,2.449c15.885-9.804,34.202-14.986,52.97-14.986c55.692,0,101.001,45.308,101.001,101.001    c0,20.857-6.302,40.875-18.224,57.889c-2.382,3.399-1.557,8.085,1.842,10.467c1.313,0.919,2.817,1.361,4.306,1.361    c2.368,0,4.698-1.116,6.16-3.203c13.703-19.555,20.945-42.555,20.945-66.514C351.941,110.747,299.89,58.696,235.91,58.696z" fill="#c5a31a"/>
	</g>
</g>
<g>
	<g>
		<path d="M432.36,0H53.315c-4.15,0-7.515,3.364-7.515,7.515v286.92c0,4.15,3.365,7.515,7.515,7.515s7.515-3.364,7.515-7.515V15.03    h364.015v207.177c0,4.151,3.365,7.515,7.515,7.515c4.15,0,7.515-3.364,7.515-7.515V7.515C439.875,3.364,436.511,0,432.36,0z" fill="#c5a31a"/>
	</g>
</g>
<g>
</g>
<g>
</g>
<g>
</g>
<g>
</g>
<g>
</g>
<g>
</g>
<g>
</g>
<g>
</g>
<g>
</g>
<g>
</g>
<g>
</g>
<g>
</g>
<g>
</g>
<g>
</g>
<g>
</g>
</svg>
