<?xml version="1.0" encoding="utf-8"?>
<!-- Generator: Adobe Illustrator 21.1.0, SVG Export Plug-In . SVG Version: 6.00 Build 0)  -->
<svg version="1.1" id="Слой_1" xmlns="http://www.w3.org/2000/svg" xmlns:xlink="http://www.w3.org/1999/xlink" x="0px" y="0px"
	 viewBox="0 0 512 512" style="enable-background:new 0 0 512 512;" xml:space="preserve">
<style type="text/css">
	.st0{fill:#585658;}
</style>
<g>
	<g>
		<path class="st0" d="M57,113.2l56.3-56.4c6.6-6.6,18.1-6.6,24.7,0l32.4,32.4l-81,81.1L57,137.9C50.2,131.1,50.2,120,57,113.2z
			 M327.7,408.9L118.3,199.2l81-81.1l209.4,209.7L327.7,408.9L327.7,408.9z M427.4,366.9l23.8,84.5l-84.4-23.8L427.4,366.9
			L427.4,366.9z M28.1,84.3c-22.7,22.8-22.7,59.8,0,82.5l285.1,285.5c2.5,2.5,5.5,4.3,8.9,5.2l153,43.1c4.4,1,14.8,0.1,20-5.2
			c5.1-5.3,7.2-12.9,5.2-20l-43-153.1c-0.9-3.4-2.7-6.4-5.2-8.9L166.8,27.9c-31.7-31.8-71.4-11-82.4,0L28.1,84.3L28.1,84.3z"/>
	</g>
</g>
</svg>
